<?xml version="1.0" encoding="utf-8"?>
<?xml-stylesheet type="text/xsl" href="rss1.xsl"?>
<rss version="2.0" xmlns:atom="http://www.w3.org/2005/Atom" xmlns:content="http://purl.org/rss/1.0/modules/content/" xmlns:dc="http://purl.org/dc/elements/1.1/" xmlns:media="http://search.yahoo.com/mrss/">
<channel>
 <title>Getty</title>
 <link>http://www.gettyimg.com/</link>
 <atom:link href="http://www.gettyimg.com/" rel="self" type="application/rss+xml" />

 
                <item>
                <title><![CDATA[【Apple Music】WEB-RiP - Pitbull, Nile Rodgers - Freak 54 (Freak Out) (1080p)]]></title>
                <link><![CDATA[https://sharemania.us/threads/pitbull-nile-rodgers-freak-54-freak-out-1080p.250286/]]></link>
                <description><![CDATA[<article>
<blockquote class="messageText SelectQuoteContainer ugc baseHtml">
<img src="https://i.postimg.cc/vHrChP3g/Pitbull-Nile-Rodgers-Freak-54-Freak-Out-mp4.jpg" class="bbCodeImage LbImage" alt="[​IMG]" data-url="https://i.postimg.cc/vHrChP3g/Pitbull-Nile-Rodgers-Freak-54-Freak-Out-mp4.jpg" style=""><br>
<br>
<div class="bbCodeBlock bbCodeCode">
<div class="type">Code:</div>
<pre>General
Complete name                  : G:\Новая папка\Pitbull, Nile Rodgers - Freak 54 (Freak Out).mp4
Format                         : MPEG-4
Format profile                 : Base Media
Codec ID                       : isom (isom/iso2/avc1/mp41)
File size                      : 170 MiB
Duration                       : 2 min 22 s
Overall bit rate               : 10.0 Mb/s
Frame rate                     : 23.976 FPS
Movie name                     : Freak 54 (Freak Out)
Performer                      : Pitbull
Genre                          : Pop
ContentType                    : Music Video
Recorded date                  : 2023-09-15 07:00:00 UTC
Writing application            : Lavf56.30.100
Copyright                      : ℗ 2023 Mr. 305 Records

Video
ID                             : 1
Format                         : AVC
Format/Info                    : Advanced Video Codec
Format profile                 : High@L4
Format settings                : CABAC / 4 Ref Frames
Format settings, CABAC         : Yes
Format settings, Reference fra : 4 frames
Format settings, Slice count   : 8 slices per frame
Codec ID                       : avc1
Codec ID/Info                  : Advanced Video Coding
Duration                       : 2 min 22 s
Bit rate                       : 9 765 kb/s
Width                          : 1 920 pixels
Height                         : 1 008 pixels
Display aspect ratio           : 1.905
Frame rate mode                : Constant
Frame rate                     : 23.976 (24000/1001) FPS
Color space                    : YUV
Chroma subsampling             : 4:2:0
Bit depth                      : 8 bits
Scan type                      : Progressive
Bits/(Pixel*Frame)             : 0.210
Stream size                    : 166 MiB (97%)
Color range                    : Limited
Color primaries                : BT.709
Transfer characteristics       : BT.709
Matrix coefficients            : BT.709
Codec configuration box        : avcC

Audio
ID                             : 2
Format                         : AAC LC
Format/Info                    : Advanced Audio Codec Low Complexity
Codec ID                       : mp4a-40-2
Duration                       : 2 min 22 s
Duration_LastFrame             : -1 ms
Bit rate mode                  : Constant
Bit rate                       : 256 kb/s
Channel(s)                     : 2 channels
Channel layout                 : L R
Sampling rate                  : 48.0 kHz
Frame rate                     : 46.875 FPS (1024 SPF)
Compression mode               : Lossy
Stream size                    : 4.35 MiB (3%)
Default                        : Yes
Alternate group                : 1

</pre>
</div>
<div class="bbCodeBlock bbCodeVfcHH HiddenContent">
<div class="attribution type">Hidden Content:</div>
<blockquote>You must either reply or click 'Like' to see the hidden information contained here.</blockquote>
</div>
<div class="messageTextEndMarker">&nbsp;</div>
</blockquote>
</article>]]></description>
                <author><![CDATA[vitalya3]]></author>
                </item>

                
                <item>
                <title><![CDATA[【Apple Music】WEB-RiP - Daddy Yankee &amp; Pitbull - HOT (1080p)]]></title>
                <link><![CDATA[https://sharemania.us/threads/daddy-yankee-pitbull-hot-1080p.250288/]]></link>
                <description><![CDATA[<article>
<blockquote class="messageText SelectQuoteContainer ugc baseHtml">
<img src="https://i.postimg.cc/6pvSTtmv/Daddy-Yankee-Pitbull-HOT-mp4.jpg" class="bbCodeImage LbImage" alt="[​IMG]" data-url="https://i.postimg.cc/6pvSTtmv/Daddy-Yankee-Pitbull-HOT-mp4.jpg" style=""><br>
<br>
<div class="bbCodeBlock bbCodeCode">
<div class="type">Code:</div>
<pre>General
Complete name                  : G:\Новая папка\Daddy Yankee &amp; Pitbull - HOT.mp4
Format                         : MPEG-4
Format profile                 : Base Media
Codec ID                       : isom (isom/iso2/avc1/mp41)
File size                      : 188 MiB
Duration                       : 2 min 37 s
Overall bit rate               : 10.0 Mb/s
Frame rate                     : 24.000 FPS
Movie name                     : HOT
Performer                      : Daddy Yankee &amp; Pitbull
Genre                          : Latin
ContentType                    : Music Video
Recorded date                  : 2022-03-25 07:00:00 UTC
Writing application            : Lavf56.30.100
Copyright                      : ℗ 2022 El Cartel Records, manufactured and marketed by Republic Records, a division of UMG Recordings, Inc.

Video
ID                             : 1
Format                         : AVC
Format/Info                    : Advanced Video Codec
Format profile                 : High@L4
Format settings                : CABAC / 4 Ref Frames
Format settings, CABAC         : Yes
Format settings, Reference fra : 4 frames
Format settings, Slice count   : 8 slices per frame
Codec ID                       : avc1
Codec ID/Info                  : Advanced Video Coding
Duration                       : 2 min 37 s
Bit rate                       : 9 755 kb/s
Width                          : 1 920 pixels
Height                         : 1 080 pixels
Display aspect ratio           : 16:9
Frame rate mode                : Constant
Frame rate                     : 24.000 FPS
Color space                    : YUV
Chroma subsampling             : 4:2:0
Bit depth                      : 8 bits
Scan type                      : Progressive
Bits/(Pixel*Frame)             : 0.196
Stream size                    : 183 MiB (97%)
Language                       : English
Color range                    : Limited
Color primaries                : BT.709
Transfer characteristics       : BT.709
Matrix coefficients            : BT.709
Codec configuration box        : avcC

Audio
ID                             : 2
Format                         : AAC LC
Format/Info                    : Advanced Audio Codec Low Complexity
Codec ID                       : mp4a-40-2
Duration                       : 2 min 37 s
Duration_LastFrame             : -16 ms
Bit rate mode                  : Constant
Bit rate                       : 255 kb/s
Channel(s)                     : 2 channels
Channel layout                 : L R
Sampling rate                  : 48.0 kHz
Frame rate                     : 46.875 FPS (1024 SPF)
Compression mode               : Lossy
Stream size                    : 4.79 MiB (3%)
Default                        : Yes
Alternate group                : 1

</pre>
</div>
<div class="bbCodeBlock bbCodeVfcHH HiddenContent">
<div class="attribution type">Hidden Content:</div>
<blockquote>You must either reply or click 'Like' to see the hidden information contained here.</blockquote>
</div>
<div class="messageTextEndMarker">&nbsp;</div>
</blockquote>
</article>]]></description>
                <author><![CDATA[vitalya3]]></author>
                </item>

                
                <item>
                <title><![CDATA[【Requests】[REQ AUD] - Letoya Luckett - Back To Life (qobuz)]]></title>
                <link><![CDATA[https://sharemania.us/threads/letoya-luckett-back-to-life-qobuz.250287/]]></link>
                <description><![CDATA[<article>
<blockquote class="messageText SelectQuoteContainer ugc baseHtml">
<a href="https://www.qobuz.com/gb-en/album/back-2-life-letoya-luckett/0099923215523?_gl=1*1vsbcyx*_up*MQ..&amp;gclid=Cj0KCQjw-uK0BhC0ARIsANQtgGNSDm-jmH3awcZTf9exSmVHGiDqy1R-sFj6NPbLqRJRpQdR6ukdeHYaAkLEEALw_wcB" target="_blank" class="externalLink" rel="nofollow">https://www.qobuz.com/gb-en/album/b...HGiDqy1R-sFj6NPbLqRJRpQdR6ukdeHYaAkLEEALw_wcB</a><br>
<br>
Hi, please can someone get this in HQ please? <br>
<br>
Thank you <img src="styles/default/xenforo/smilies/big_smile-48.png" class="mceSmilie" alt=":)" title="Smile    :)">
<div class="messageTextEndMarker">&nbsp;</div>
</blockquote>
</article>]]></description>
                <author><![CDATA[PopFan]]></author>
                </item>

                </channel></rss>